PathFileType	4	(X/Y/Z)	/Users/itak/Documents/Research/Walk-IL/dataset/trc/00144_00007.trc
DataRate	CameraRate	NumFrames	NumMarkers	Units	OrigDataRate	OrigDataStartFrame	OrigNumFrames
100.000000	100.000000	4	53	mm	100.000000	448	512
Frame#	Time	RPSI			LPSI			L3			STRN			T10			C7			CLAV			RBAK			LBAK			LSHO			LUPA			LAEL			LAOL			LWTS			LWPS			LFRA			LIFD			LHPS			LHTS			RSHO			RUPA			RAEL			RAOL			RWTS			RWPS			RFRA			RIFD			RHTS			RHPS			RBHD			LFHD			RFHD			LBHD			LHIP			RHIP			RASI			LASI			LKNE			LTHI			LANK			LTIP			LTOE			LMT1			LMT5			LHEE			RKNE			RTHI			RANK			RTIP			RTOE			RMT1			RMT5			RHEE			
		X1	Y1	Z1	X2	Y2	Z2	X3	Y3	Z3	X4	Y4	Z4	X5	Y5	Z5	X6	Y6	Z6	X7	Y7	Z7	X8	Y8	Z8	X9	Y9	Z9	X10	Y10	Z10	X11	Y11	Z11	X12	Y12	Z12	X13	Y13	Z13	X14	Y14	Z14	X15	Y15	Z15	X16	Y16	Z16	X17	Y17	Z17	X18	Y18	Z18	X19	Y19	Z19	X20	Y20	Z20	X21	Y21	Z21	X22	Y22	Z22	X23	Y23	Z23	X24	Y24	Z24	X25	Y25	Z25	X26	Y26	Z26	X27	Y27	Z27	X28	Y28	Z28	X29	Y29	Z29	X30	Y30	Z30	X31	Y31	Z31	X32	Y32	Z32	X33	Y33	Z33	X34	Y34	Z34	X35	Y35	Z35	X36	Y36	Z36	X37	Y37	Z37	X38	Y38	Z38	X39	Y39	Z39	X40	Y40	Z40	X41	Y41	Z41	X42	Y42	Z42	X43	Y43	Z43	X44	Y44	Z44	X45	Y45	Z45	X46	Y46	Z46	X47	Y47	Z47	X48	Y48	Z48	X49	Y49	Z49	X50	Y50	Z50	X51	Y51	Z51	X52	Y52	Z52	X53	Y53	Z53	

449	4.48	937.5247192382812	1114.791381835938	126.8823318481445	802.7081298828125	1117.564453125	124.8150863647461	869.7225341796875	1146.0673828125	135.2962341308594	883.7736206054688	1365.228515625	-61.17633819580078	879.5381469726562	1291.659423828125	185.5211486816406	880.9462280273438	1587.929809570312	183.7224884033203	884.574951171875	1495.3994140625	-10.82352066040039	959.0241088867188	1394.033447265625	220.3737945556641	778.1634521484375	1570.827880859375	185.5225830078125	707.4017333984375	1566.820068359375	96.18569183349609	633.4204711914062	1435.978759765625	113.5578155517578	609.1012573242188	1218.345458984375	105.4997634887695	674.6869506835938	1204.804931640625	165.2266082763672	633.62744140625	955.614990234375	8.302609443664551	618.5560302734375	933.4429931640625	93.67069244384766	599.8975830078125	1101.9638671875	92.42933654785156	650.6277465820312	760.3128662109375	0.02148715779185295	614.3533325195312	857.3743286132812	67.57443237304688	621.4572143554688	865.8909301757812	-0.967927873134613	1060.707275390625	1565.263061523438	125.4748764038086	1121.285888671875	1488.262573242188	133.6704406738281	1139.437622070312	1193.981567382812	93.80084991455078	1044.08837890625	1192.146728515625	106.1175537109375	1111.4033203125	988.0457153320312	-98.94078063964844	1146.726928710938	955.51708984375	-32.35132217407227	1152.1396484375	1127.15966796875	53.69992065429688	1092.082397460938	804.74365234375	-168.2766876220703	1113.915283203125	890.5737915039062	-152.2794799804688	1145.789428710938	867.4500732421875	-91.32775115966797	967.0753784179688	1758.610229492188	146.4625701904297	816.194580078125	1844.1064453125	9.871565818786621	945.6136474609375	1852.728759765625	-3.210182428359985	835.1111450195312	1753.051025390625	168.9479675292969	693.7431640625	1039.482299804688	20.4850959777832	1056.426513671875	1028.442138671875	-5.92256498336792	1010.169738769531	1106.00390625	-84.37612152099609	742.2611694335938	1113.836791992188	-77.49557495117188	708.97314453125	540.7554931640625	-84.28013610839844	687.5715942382812	685.7721557617188	-38.61238098144531	687.1072387695312	40.15846633911133	52.39834976196289	670.6339111328125	294.7901916503906	25.49466705322266	752.4367065429688	36.45417785644531	-173.7302093505859	784.63818359375	39.78459548950195	-91.3485107421875	669.282470703125	38.55365753173828	-73.25409698486328	744.1956176757812	38.02204513549805	125.3475112915039	1004.264892578125	536.5443725585938	2.260685682296753	1042.895263671875	817.5518798828125	-24.95069885253906	946.864013671875	23.94624137878418	86.45227813720703	1007.012145996094	403.0326232910156	25.68023300170898	908.526123046875	43.0753059387207	-146.0988616943359	861.3699951171875	38.48495864868164	-89.3914794921875	975.823486328125	33.73094940185547	-45.94129180908203	894.8314208984375	27.19135093688965	142.4934997558594	
450	4.49	938.0199584960938	1115.001098632812	124.607780456543	803.2320556640625	1118.068237304688	122.7953567504883	870.2034912109375	1146.273071289062	133.0804595947266	883.7481079101562	1365.398681640625	-63.11741638183594	879.5267333984375	1291.731811523438	183.8384552001953	880.8013916015625	1587.991455078125	182.0593109130859	884.5182495117188	1495.527587890625	-12.65402126312256	958.8864135742188	1394.065673828125	218.5949249267578	778.015625	1570.858642578125	183.8400268554688	707.33642578125	1566.948974609375	94.47080993652344	633.1895141601562	1436.10986328125	111.2912216186523	608.48876953125	1218.552124023438	101.7533264160156	673.7717895507812	1204.431030273438	161.6271362304688	633.03857421875	957.1380004882812	1.517133593559265	617.8032836914062	933.813232421875	86.51560211181641	599.1708374023438	1102.210205078125	87.45880126953125	649.2476806640625	762.1106567382812	-9.839911460876465	613.4923706054688	858.1182250976562	59.36429977416992	620.5729370117188	867.6687622070312	-9.069615364074707	1060.61328125	1565.358276367188	123.7934646606445	1121.078369140625	1488.290893554688	132.1620941162109	1138.36181640625	1193.85546875	94.01042175292969	1042.974365234375	1192.406372070312	106.1769561767578	1110.0986328125	985.3576049804688	-95.93836975097656	1145.402099609375	953.8189086914062	-28.84682083129883	1150.921752929688	1126.553344726562	54.83369445800781	1090.455322265625	801.0108642578125	-162.3656158447266	1112.36767578125	887.0971069335938	-147.7331848144531	1144.3193359375	864.8732299804688	-86.45889282226562	966.9341430664062	1758.693115234375	145.0942077636719	816.1656494140625	1844.369506835938	8.483678817749023	945.6058959960938	1852.908569335938	-4.571200847625732	834.9461059570312	1753.241577148438	167.4972686767578	694.0224609375	1040.018798828125	19.04909706115723	1056.319702148438	1028.20654296875	-8.354358673095703	1009.96728515625	1105.935424804688	-86.68829345703125	742.0889282226562	1114.065551757812	-79.40275573730469	708.5166625976562	540.8064575195312	-81.46858978271484	687.2183837890625	686.0626831054688	-37.07062530517578	687.1123046875	39.87083435058594	52.69064712524414	670.5409545898438	294.7698669433594	27.4890079498291	752.2400512695312	36.45080184936523	-173.7343902587891	784.5062866210938	39.81838226318359	-91.27742004394531	669.0924682617188	38.46428680419922	-73.05974578857422	744.2960205078125	37.57582855224609	125.6202011108398	1003.848388671875	536.3986206054688	0.8708850741386414	1042.5810546875	817.3795776367188	-26.92593002319336	946.76513671875	24.0523738861084	86.39654541015625	1006.560302734375	402.8619079589844	24.60683631896973	908.0975341796875	42.79623794555664	-146.1550445556641	861.1182250976562	37.95422744750977	-89.45227813720703	975.7015380859375	33.82924652099609	-45.95266723632812	894.708984375	27.19565582275391	142.4625854492188	
451	4.5	938.5221557617188	1115.23974609375	122.3720932006836	803.7680053710938	1118.6220703125	120.82080078125	870.70263671875	1146.538452148438	130.9028167724609	883.7155151367188	1365.586791992188	-65.03401947021484	879.5179443359375	1291.846313476562	182.2464447021484	880.6329956054688	1588.094360351562	180.4069213867188	884.4408569335938	1495.680419921875	-14.47089672088623	958.7564086914062	1394.150390625	216.8154907226562	777.8457641601562	1570.909912109375	182.1737823486328	707.2507934570312	1567.083251953125	92.76634979248047	632.9379272460938	1436.259643554688	109.0202865600586	607.8243408203125	1218.791259765625	97.92472839355469	672.771240234375	1204.069580078125	157.9680480957031	632.4525756835938	958.7327270507812	-5.328284740447998	616.9813232421875	934.2671508789062	79.24730682373047	598.395751953125	1102.53955078125	82.37390899658203	647.8671875	764.0010375976562	-19.74046516418457	612.5555419921875	858.9547119140625	51.04146957397461	619.6788940429688	869.5438842773438	-17.24429321289062	1060.490966796875	1565.52978515625	122.1063003540039	1120.858276367188	1488.416259765625	130.6499633789062	1137.295654296875	1193.847900390625	94.22808074951172	1041.87646484375	1192.768920898438	106.2557601928711	1108.818969726562	982.763427734375	-92.82284545898438	1144.109985351562	952.2499389648438	-25.21932601928711	1149.701782226562	1126.04931640625	56.00801086425781	1088.887451171875	797.3475952148438	-156.2066345214844	1110.798950195312	883.6453857421875	-142.9566192626953	1142.900634765625	862.4177856445312	-81.40675354003906	966.7291259765625	1758.806396484375	143.7562103271484	816.075927734375	1844.672241210938	7.129528999328613	945.5419311523438	1853.137817382812	-5.899117469787598	834.7157592773438	1753.444091796875	166.0704345703125	694.2817993164062	1040.611328125	17.62177848815918	1056.230834960938	1027.955688476562	-10.70723438262939	1009.736877441406	1105.863647460938	-88.95124053955078	741.8971557617188	1114.344116210938	-81.26390075683594	708.0172729492188	540.973388671875	-78.67085266113281	686.85400390625	686.4689331054688	-35.54079055786133	686.933837890625	39.58238220214844	52.91664123535156	670.2227172851562	294.8071899414062	29.29212188720703	752.1144409179688	36.49755096435547	-173.668212890625	784.3499145507812	39.90851211547852	-91.13990783691406	668.852294921875	38.33876037597656	-72.90210723876953	744.164794921875	37.25045013427734	125.8769149780273	1003.36767578125	536.2521362304688	-0.5068650841712952	1042.1796875	817.1190185546875	-28.96357345581055	946.6475219726562	24.18307113647461	86.33934783935547	1006.048767089844	402.6880798339844	23.5179557800293	907.6679077148438	42.53004455566406	-146.2175598144531	860.8673706054688	37.43452453613281	-89.52548980712891	975.5634765625	33.94498825073242	-45.96156692504883	894.5703125	27.23752212524414	142.4126434326172	
452	4.51	939.0126953125	1115.506225585938	120.1806259155273	804.2980346679688	1119.219116210938	118.888801574707	871.2034301757812	1146.857299804688	128.7675628662109	883.6832275390625	1365.791015625	-66.93121337890625	879.51953125	1291.996826171875	180.7254333496094	880.4498291015625	1588.229858398438	178.7667541503906	884.35107421875	1495.85595703125	-16.2764892578125	958.6437377929688	1394.280151367188	215.03271484375	777.6626586914062	1570.971923828125	180.5255889892578	707.1543579101562	1567.21240234375	91.07541656494141	632.67724609375	1436.423828125	106.7490692138672	607.1160278320312	1219.059326171875	94.01246643066406	671.6925659179688	1203.71826171875	154.2512817382812	631.87890625	960.3875122070312	-12.23014354705811	616.0892944335938	934.7980346679688	71.88613891601562	597.58056640625	1102.945678710938	77.17818450927734	646.5016479492188	765.9727172851562	-29.64750862121582	611.5397338867188	859.8777465820312	42.62008285522461	618.7980346679688	871.5000610351562	-25.4732780456543	1060.347045898438	1565.770629882812	120.4093322753906	1120.635131835938	1488.633911132812	129.1322479248047	1136.24169921875	1193.94921875	94.45996856689453	1040.79638671875	1193.228149414062	106.3534698486328	1107.580078125	980.2891235351562	-89.61702728271484	1142.84814453125	950.8125610351562	-21.48657608032227	1148.486328125	1125.647216796875	57.21851348876953	1087.381469726562	793.7756958007812	-149.8432312011719	1109.239868164062	880.239501953125	-137.9887542724609	1141.53515625	860.0960083007812	-76.20092010498047	966.4674682617188	1758.947509765625	142.4457702636719	815.9299926757812	1845.00537109375	5.806758880615234	945.4227294921875	1853.407836914062	-7.193291664123535	834.4304809570312	1753.64990234375	164.6693267822266	694.49658203125	1041.266967773438	16.1819953918457	1056.153442382812	1027.710205078125	-12.99945545196533	1009.487365722656	1105.787109375	-91.15498352050781	741.6942749023438	1114.658569335938	-83.08261108398438	707.4559936523438	541.2325439453125	-75.91441345214844	686.460205078125	686.9702758789062	-34.03712463378906	686.6136474609375	39.2879753112793	53.06381225585938	669.7081298828125	294.876708984375	30.88517379760742	752.0358276367188	36.55871200561523	-173.5797271728516	784.1692504882812	40.02297592163086	-90.97632598876953	668.5626831054688	38.17366409301758	-72.79739379882812	743.8621826171875	37.02408981323242	126.0859069824219	1002.830322265625	536.1068725585938	-1.872606635093689	1041.6904296875	816.7640380859375	-31.06740951538086	946.5101928710938	24.34004974365234	86.28366851806641	1005.499755859375	402.5345153808594	22.41229438781738	907.2489013671875	42.29191207885742	-146.2881011962891	860.6229248046875	36.9427604675293	-89.60725402832031	975.412353515625	34.07575225830078	-45.96733093261719	894.4164428710938	27.31766319274902	142.3509979248047	
